HIERARCHY
ROOT Hips
{
    OFFSET 0.0 0.0 0.0
    CHANNELS 6 Xposition Yposition Zposition Zrotation Xrotation Yrotation
    JOINT LeftHipJoint
    {
        OFFSET 0.1 0.0 0.0
        CHANNELS 3 Zrotation Xrotation Yrotation
        JOINT LeftUpLeg
        {
            OFFSET 125.06269206364038 0.0 0.0
            CHANNELS 3 Zrotation Xrotation Yrotation
            JOINT LeftLeg
            {
                OFFSET 0.0 0.0 -419.74427832711535
                CHANNELS 3 Zrotation Xrotation Yrotation
                JOINT LeftFoot
                {
                    OFFSET 0.0 0.0 -398.2487780131001
                    CHANNELS 3 Zrotation Xrotation Yrotation
                    End Site
                    {
                        OFFSET 0.0 -0.1 0.0
                    }
                }
            }
        }
    }
    JOINT LowerBack
    {
        OFFSET 0.0 0.0 0.1
        CHANNELS 3 Zrotation Xrotation Yrotation
        JOINT Spine
        {
            OFFSET 0.0 0.0 218.2986588881985
            CHANNELS 3 Zrotation Xrotation Yrotation
            JOINT Spine1
            {
                OFFSET 0.0 0.0 251.0236080617692
                CHANNELS 3 Zrotation Xrotation Yrotation
                JOINT LeftShoulder
                {
                    OFFSET 0.1 0.0 0.0
                    CHANNELS 3 Zrotation Xrotation Yrotation
                    JOINT LeftArm
                    {
                        OFFSET 142.8379121433321 0.0 0.0
                        CHANNELS 3 Zrotation Xrotation Yrotation
                        JOINT LeftForeArm
                        {
                            OFFSET 271.2595495052841 0.0 0.0
                            CHANNELS 3 Zrotation Xrotation Yrotation
                            JOINT LeftHand
                            {
                                OFFSET 232.82943068501552 0.0 0.0
                                CHANNELS 3 Zrotation Xrotation Yrotation
                                End Site
                                {
                                    OFFSET 0.1 0.0 0.0
                                }
                            }
                        }
                    }
                }
                JOINT Neck
                {
                    OFFSET 0.0 0.0 0.1
                    CHANNELS 3 Zrotation Xrotation Yrotation
                    JOINT Neck1
                    {
                        OFFSET 0.0 0.0 108.0808209106224
                        CHANNELS 3 Zrotation Xrotation Yrotation
                        End Site
                        {
                            OFFSET 0.0 0.0 111.41915754417512
                        }
                    }
                }
                JOINT RightShoulder
                {
                    OFFSET -0.1 0.0 0.0
                    CHANNELS 3 Zrotation Xrotation Yrotation
                    JOINT RightArm
                    {
                        OFFSET -142.8379121433321 0.0 0.0
                        CHANNELS 3 Zrotation Xrotation Yrotation
                        JOINT RightForeArm
                        {
                            OFFSET -271.2595495052841 0.0 0.0
                            CHANNELS 3 Zrotation Xrotation Yrotation
                            JOINT RightHand
                            {
                                OFFSET -232.82943068501552 0.0 0.0
                                CHANNELS 3 Zrotation Xrotation Yrotation
                                End Site
                                {
                                    OFFSET -0.1 0.0 0.0
                                }
                            }
                        }
                    }
                }
            }
        }
    }
    JOINT RightHipJoint
    {
        OFFSET -0.1 0.0 0.0
        CHANNELS 3 Zrotation Xrotation Yrotation
        JOINT RightUpLeg
        {
            OFFSET -125.06269206364038 0.0 0.0
            CHANNELS 3 Zrotation Xrotation Yrotation
            JOINT RightLeg
            {
                OFFSET 0.0 0.0 -419.74427832711535
                CHANNELS 3 Zrotation Xrotation Yrotation
                JOINT RightFoot
                {
                    OFFSET 0.0 0.0 -398.2487780131001
                    CHANNELS 3 Zrotation Xrotation Yrotation
                    End Site
                    {
                        OFFSET 0.0 -0.1 0.0
                    }
                }
            }
        }
    }
}
MOTION
Frames: 10
Frame Time: 0.03333333333333333
0.0 0.0 814.3659411573808 22.163890370400257 0.44225613277661036 4.378303698985044 -3.1805546814635168e-15 -9.310583597449553e-33 3.3544912656060527e-16 -0.7934725174745328 -8.559369456197004 -0.4286846873180712 2.421451075912832 26.289602783399417 0.5205605427840279 -3.1805546814635168e-15 1.987846675914698e-16 5.517382872562698e-33 -3.1805546814635168e-15 -9.310583597449553e-33 3.3544912656060527e-16 -0.41177202682104735 -4.462712042408782 -3.9025697932220322 -7.758399506587244 7.38470520000311e-17 1.0462802811796962e-16 0.0 0.0 -9.93923337957349e-17 -11.513773518721223 -55.45222497483924 32.65090217260017 -132.36154223514237 1.2844744530664374e-15 2.909648339782519e-15 3.1805546814635168e-15 0.0 0.0 0.0 0.0 -9.93923337957349e-17 9.885008053283004 -13.749748712023244 -4.4883450956348305 0.0 0.0 -9.93923337957349e-17 45.4124172171369 53.72261149760519 -80.30437800276422 99.79296368025665 -1.280962342301733e-15 1.139588524603237e-14 0.0 0.0 0.0 -3.1805546814635168e-15 -9.310583597449553e-33 3.3544912656060527e-16 -0.9596210642047142 -10.30041251664113 -2.9552374855999664 1.598887976832226 33.69939192548039 1.267309679070206 0.0 0.0 0.0
0.0 0.0 814.3659411573808 22.251163671943214 0.5168988509987164 4.347799447084764 0.0 0.0 2.3605679276487037e-16 -0.8018753225611891 -8.653214379154175 -0.42012690739272796 2.4318399256139176 26.352464096288873 0.5389022667429512 -3.1805546814635168e-15 -3.3793393490549868e-15 -1.987846675914698e-15 0.0 0.0 2.3605679276487037e-16 -0.40408732022599575 -4.3818191438431295 -3.8659278156172365 -7.617405761867913 1.5627795958963588e-15 -9.518654458969625e-17 0.0 0.0 0.0 -10.73533743966736 -54.71830388740594 32.9442695145287 -133.1152899994444 -8.36668449717681e-15 -3.3054523410476188e-15 -3.1805546814635168e-15 0.0 0.0 0.0 0.0 0.0 9.576464801140096 -13.630403371106246 -4.427576917154564 0.0 0.0 0.0 45.29600267938364 53.57405821997969 -80.38999002700768 99.57517064663301 -9.71540063374279e-15 -8.213759178009911e-15 -6.361109362927032e-15 0.0 0.0 0.0 0.0 2.3605679276487037e-16 -0.9688353129848153 -10.401439691231468 -2.9099311418626086 1.6333035210342945 33.775135074387876 1.1610216429698075 0.0 0.0 0.0
0.0 0.0 814.3659411573808 22.334526721544577 0.6350061981919283 4.252784138970416 0.0 0.0 6.212020862233431e-18 -0.8060670757952692 -8.718315988072343 -0.303223583277056 2.466647098693662 26.189178821347138 0.5634122319854866 -3.1805546814635168e-15 1.987846675914698e-16 -3.975693351829396e-16 0.0 0.0 6.212020862233431e-18 -0.39359205046628415 -4.278559699837075 -3.77052860905779 -7.461387832551647 2.975451358405974e-16 1.9401450818572827e-17 -3.1805546814635168e-15 7.951386703658792e-16 -9.939233379573487e-17 -9.897206875366221 -53.914061749915035 33.25897250981642 -133.67949811978636 1.250925396517489e-15 2.9242287417585946e-15 3.1805546814635168e-15 0.0 0.0 -3.1805546814635168e-15 7.951386703658792e-16 -9.939233379573487e-17 9.285350503097167 -13.598136006876603 -4.336306635622646 -3.1805546814635168e-15 7.951386703658792e-16 -9.939233379573487e-17 44.82756189694386 53.296111681956866 -80.21347650171087 99.58723870108889 -0.0 0.0 6.3611093629270335e-15 0.0 0.0 0.0 0.0 6.212020862233431e-18 -0.9779795396878127 -10.521688902470242 -2.714656015752114 1.7642865034430086 33.88271318413854 0.9075618966737163 0.0 0.0 0.0
0.0 0.0 814.3659411573808 22.399326566070986 0.8663127390006081 4.226428511036189 0.0 0.0 -2.9507099095608797e-17 -0.8215017620931647 -8.907842634567947 -0.32385572183061095 2.42741776956022 25.97732517432865 0.6901626803849551 0.0 0.0 3.975693351829396e-16 0.0 0.0 -2.9507099095608797e-17 -0.39317116939250013 -4.286242501384759 -3.7120691261798116 -7.324996802174151 -6.014851308189028e-16 6.109476283766423e-17 0.0 0.0 0.0 -9.20795200211703 -52.88842189697018 33.48132229037973 -134.31721053481178 7.096922386098494e-15 4.618799136047431e-16 0.0 0.0 0.0 0.0 0.0 0.0 8.973065440865852 -13.61695919507837 -4.326493878991559 0.0 0.0 0.0 44.47204940884562 53.006565171317035 -79.977691092854 99.59857615753407 -7.664134449537514e-15 -1.0641044146589359e-14 0.0 0.0 -1.5902773407317584e-15 0.0 0.0 -2.9507099095608797e-17 -0.9878893288571007 -10.65560401924321 -2.6415355380608245 1.789334691467095 33.65445262373201 0.7630970417454653 0.0 0.0 7.951386703658792e-16
0.0 0.0 814.3659411573808 22.414734018382653 0.9285659392335244 4.189130652517407 0.0 0.0 -2.9196498052497126e-16 -0.8109328400132566 -8.831295714157914 -0.32331798892508723 2.3933350345868623 25.758767888888155 0.7728849227930968 6.896728590703373e-34 1.987846675914698e-16 -3.975693351829396e-16 0.0 0.0 -2.9196498052497126e-16 -0.38311816882770394 -4.193903651849632 -3.6115902690804096 -7.24774727985917 -1.4866645247914235e-16 -1.588026962065398e-16 -3.1805546814635168e-15 -1.3793457181406746e-33 4.969616689786745e-17 -8.473684569751358 -51.37840734981743 33.69121912197456 -134.85840191221484 -7.0946618871195845e-15 -4.953918815949813e-16 0.0 0.0 0.0 -3.1805546814635168e-15 -1.3793457181406746e-33 4.969616689786745e-17 8.719340102161626 -13.53427864409686 -4.394747579709235 -3.1805546814635168e-15 -1.3793457181406746e-33 4.969616689786745e-17 44.44736816924616 52.82771505220905 -80.00673485378594 99.62905930057973 2.0522973588713632e-15 -2.429815555252933e-15 0.0 0.0 1.5902773407317584e-15 0.0 0.0 -2.9196498052497126e-16 -0.9838416410038295 -10.653819303403118 -2.6287388732633468 1.766261989363641 33.39724777583315 0.7625373699425769 0.0 0.0 0.0
0.0 0.0 814.3659411573808 22.380305363440115 0.9184183518661259 4.203399646976021 0.0 0.0 9.007430250238476e-17 -0.8049707788822154 -8.822496785847722 -0.40199808229278744 2.351256187136865 25.874687292814567 0.8371058043153669 0.0 0.0 0.0 0.0 0.0 9.007430250238476e-17 -0.3672579430283247 -4.045942510132525 -3.539556104408047 -7.221014496429164 -6.881063295984632e-16 -1.4300867118699582e-16 0.0 0.0 4.969616689786745e-17 -7.752444859816281 -49.73606014172483 33.84860875154773 -135.33726126521356 -2.4169839945971076e-15 -5.884037788541078e-15 -3.1805546814635168e-15 0.0 0.0 0.0 0.0 4.969616689786745e-17 8.425551833217975 -13.542510956311215 -4.519118484858781 0.0 0.0 4.969616689786745e-17 44.44387974497814 52.6569532401747 -79.98939405528273 99.73074954077637 -1.1013692565099053e-14 3.194626917906889e-15 0.0 0.0 0.0 0.0 0.0 9.007430250238476e-17 -0.9767054453097084 -10.641869178588623 -2.702199512865523 1.6930440811432916 33.35321587415933 0.8715185389020922 -1.3793457181406746e-33 -1.987846675914698e-16 -7.951386703658792e-16
0.0 0.0 814.3659411573808 22.409003692099212 0.8285225757031064 4.2307144331853 0.0 0.0 -2.574106144787978e-16 -0.7937643349289975 -8.76455098094497 -0.47467291017034785 2.306978200377589 25.97299499216674 0.975918231563767 0.0 0.0 -3.975693351829396e-16 0.0 0.0 -2.574106144787978e-16 -0.3450337523694022 -3.8294547019259086 -3.499755362619311 -7.231770367132809 6.519948738613365e-17 -1.452657335446676e-16 0.0 0.0 4.969616689786745e-17 -7.0701913398825695 -47.61907763885189 34.21755947826059 -135.88606296213078 -3.5067691203568765e-15 8.284322240880506e-15 3.1805546814635168e-15 0.0 0.0 0.0 0.0 4.969616689786745e-17 8.285525778418325 -13.493501527931494 -4.71850492467178 0.0 0.0 4.969616689786745e-17 44.44777727310079 52.67062525783059 -80.02240812645209 100.05842841500677 -1.5879489074207478e-14 -8.602492584202805e-16 0.0 0.0 0.0 0.0 0.0 -2.574106144787978e-16 -0.9575896416024523 -10.511949108727396 -2.773346960141104 1.6169640892786625 33.31006301715647 0.9685142851149596 0.0 0.0 -7.951386703658792e-16
0.0 0.0 814.3659411573808 22.287125610854396 0.9081034813777693 4.197001766993197 0.0 0.0 -1.0249834422685162e-16 -0.7947720420029872 -8.788751524353117 -0.4160795833070554 2.318815548973118 25.84395972681558 1.0056495161918433 0.0 0.0 -7.951386703658792e-16 0.0 0.0 -1.0249834422685162e-16 -0.32816854310665156 -3.6482052503968996 -3.428761584446049 -7.159165383293051 7.811988758870676e-16 -1.50303854491778e-16 0.0 0.0 0.0 -7.077104550550349 -45.365811396210795 34.168829453568065 -136.0852412881239 -8.278214408088618e-15 -3.5211632833411675e-15 -3.1805546814635168e-15 6.3611093629270335e-15 1.7655625192200634e-31 0.0 0.0 0.0 8.19114951537682 -13.616675802780534 -4.856728460835005 0.0 0.0 0.0 44.457303553122436 52.45581237524733 -79.92325013300677 100.26368448899548 2.8434790559094903e-15 6.518762709863087e-15 6.3611093629270335e-15 -8.827812596100317e-32 -1.5902773407317584e-15 0.0 0.0 -1.0249834422685162e-16 -0.9637235013061228 -10.592841866418235 -2.7347532621357193 1.6439286601697713 33.40244721520755 0.9604508179195653 0.0 0.0 -7.951386703658792e-16
0.0 0.0 814.3659411573808 22.23744435304563 1.0385997691654272 4.197840214525241 0.0 0.0 -8.075627120903461e-17 -0.8040279553207496 -8.91233505563805 -0.38004280657713096 2.3145981512336258 25.688872304413973 1.050449586548238 0.0 0.0 0.0 0.0 0.0 -8.075627120903461e-17 -0.3091385053990695 -3.446184768931452 -3.3648483154431874 -7.146614272237682 -6.20520557294318e-18 -9.997343774189018e-17 0.0 0.0 0.0 -7.516907322099194 -42.82345899977218 33.85511424432963 -135.61241277135716 2.4028485840671537e-15 5.88982436148689e-15 3.1805546814635168e-15 0.0 0.0 0.0 0.0 0.0 8.042213808631653 -13.922861534901607 -5.03355024890087 0.0 0.0 0.0 44.23020809796583 52.125042314639614 -79.55237785994335 100.50658096326009 -2.0336302724690374e-15 2.4454602831935346e-15 0.0 0.0 4.770832022195274e-15 0.0 0.0 -8.075627120903461e-17 -0.9714846996266386 -10.703699604040741 -2.7491850619676477 1.6261795340280432 33.3952256702723 0.9808758740124365 0.0 0.0 -7.951386703658792e-16
0.0 0.0 814.3659411573808 22.211245804792195 1.2595779627339583 4.055131281571736 0.0 9.93923337957349e-17 0.0 -0.80844598154675 -9.141359507985811 -0.13945496808657173 2.370547348992483 25.575023615712507 0.9305134861306439 0.0 0.0 -3.975693351829396e-16 0.0 9.93923337957349e-17 0.0 -0.2912820850781265 -3.3139354081902526 -3.222407793447214 -7.055540426711366 6.973170617452015e-16 -2.0596358692914393e-16 0.0 0.0 0.0 -7.428860727406241 -40.06693985652493 33.837188053427056 -135.38595547709076 -5.88506432358431e-15 2.414483430134305e-15 -6.3611093629270335e-15 0.0 0.0 0.0 0.0 0.0 7.896843538635217 -14.18838308523058 -5.084474916033468 0.0 0.0 0.0 44.00395854534262 51.855911435834905 -79.26764557225746 100.6094913804829 -9.789142498031e-15 -8.125733103032322e-15 0.0 0.0 1.5902773407317584e-15 0.0 9.93923337957349e-17 0.0 -0.9808052947232669 -11.019512878153746 -2.574107260231802 1.6828832636564663 33.492502470631784 1.0051619250082806 0.0 -1.987846675914698e-16 0.0
